<?xml version="1.0" standalone="no"?>
<!DOCTYPE svg PUBLIC "-//W3C//DTD SVG 20010904//EN"
 "http://www.w3.org/TR/2001/REC-SVG-20010904/DTD/svg10.dtd">
<svg version="1.0" xmlns="http://www.w3.org/2000/svg"
 width="260.000000pt" height="260.000000pt" viewBox="0 0 260.000000 260.000000"
 preserveAspectRatio="xMidYMid meet">
<metadata>
Created by potrace 1.14, written by Peter Selinger 2001-2017
</metadata>
<g transform="translate(0.000000,260.000000) scale(0.100000,-0.100000)"
fill="#000000" stroke="none">
<path d="M760 2325 l0 -175 163 2 162 3 3 43 3 42 -120 0 -121 0 0 85 0 85
120 0 120 0 0 45 0 45 -165 0 -165 0 0 -175z"/>
<path d="M1140 2395 l0 -105 115 0 115 0 0 -25 0 -25 -115 0 -115 0 0 -45 0
-45 163 2 162 3 0 105 0 105 -117 3 c-110 2 -118 4 -118 22 0 19 7 20 120 20
l120 0 0 45 0 45 -165 0 -165 0 0 -105z"/>
<path d="M1510 2395 l0 -104 118 -3 c109 -3 117 -4 117 -23 0 -19 -8 -20 -118
-23 l-118 -3 3 -42 3 -42 163 -3 162 -2 0 110 0 110 -120 0 c-113 0 -120 1
-120 20 0 19 7 20 120 20 l120 0 0 45 0 45 -165 0 -165 0 0 -105z"/>
<path d="M377 1933 c4 -27 7 -110 6 -185 l0 -138 188 0 189 0 0 -60 0 -60 -95
0 -95 0 0 -65 0 -65 95 0 95 0 0 -130 0 -130 -95 0 -95 0 0 -60 0 -60 95 0 95
0 0 -130 0 -130 -95 0 -95 0 0 -65 0 -65 95 0 95 0 0 -60 0 -60 -190 0 -190 0
0 -49 c0 -60 22 -81 87 -81 40 0 44 -2 49 -29 11 -51 209 -167 388 -225 133
-44 239 -60 396 -60 263 0 490 67 700 205 60 40 79 58 84 80 5 27 9 29 51 29
59 0 85 25 85 80 l0 40 -165 0 c-163 0 -166 0 -190 25 l-25 24 0 531 0 531 25
24 c24 25 27 25 188 25 l164 0 -1 133 c0 72 3 153 7 180 l8 47 -931 0 -931 0
8 -47z m731 -1557 l38 -34 27 29 c14 16 29 29 32 29 3 0 18 -13 33 -29 l27
-30 33 31 32 32 33 -32 33 -32 32 32 31 32 26 -24 c14 -13 25 -26 25 -30 0 -3
-46 -18 -103 -34 l-103 -28 -170 47 c-93 26 -173 50 -179 54 -5 3 15 9 45 12
30 3 58 6 62 7 5 1 25 -13 46 -32z m545 23 c27 -1 23 -4 -28 -20 -78 -24 -83
-24 -55 6 13 14 30 23 38 20 7 -3 28 -5 45 -6z"/>
<path d="M1952 1511 c-21 -13 -10 -46 16 -49 27 -4 40 22 22 43 -14 17 -20 18
-38 6z"/>
<path d="M2074 1435 c-8 -21 2 -45 19 -45 21 0 38 25 31 44 -8 20 -43 21 -50
1z"/>
<path d="M1944 1375 c-4 -8 -3 -22 0 -31 8 -21 50 -14 54 10 6 31 -43 50 -54
21z"/>
<path d="M2083 1323 c-18 -6 -16 -50 1 -56 8 -3 22 1 33 8 28 21 -1 62 -34 48z"/>
<path d="M1947 1254 c-12 -13 -8 -42 8 -48 25 -9 46 5 43 28 -3 21 -37 34 -51
20z"/>
<path d="M2074 1185 c-9 -23 3 -45 25 -45 23 0 35 28 20 46 -15 18 -38 18 -45
-1z"/>
<path d="M1952 1128 c-17 -17 -15 -45 4 -52 19 -7 44 10 44 30 0 20 -34 36
-48 22z"/>
<path d="M2074 1055 c-8 -21 2 -45 19 -45 8 0 20 7 27 15 10 12 10 18 0 30 -7
8 -19 15 -27 15 -7 0 -16 -7 -19 -15z"/>
<path d="M1952 1001 c-21 -13 -10 -46 16 -49 27 -4 40 22 22 43 -14 17 -20 18
-38 6z"/>
<path d="M2074 925 c-8 -21 2 -45 19 -45 21 0 38 25 31 44 -8 20 -43 21 -50 1z"/>
<path d="M1944 865 c-4 -8 -3 -22 0 -31 8 -21 50 -14 54 10 6 31 -43 50 -54
21z"/>
<path d="M2083 813 c-18 -6 -16 -50 1 -56 8 -3 22 1 33 8 28 21 -1 62 -34 48z"/>
<path d="M1947 744 c-12 -13 -8 -42 8 -48 25 -9 46 5 43 28 -3 21 -37 34 -51
20z"/>
<path d="M2074 675 c-9 -23 3 -45 25 -45 23 0 35 28 20 46 -15 18 -38 18 -45
-1z"/>
<path d="M1952 618 c-17 -17 -15 -45 4 -52 19 -7 44 10 44 30 0 20 -34 36 -48
22z"/>
</g>
</svg>
